<?xml version="1.0" encoding="UTF-8" standalone="no"?>
<!-- Created with Inkscape (http://www.inkscape.org/) -->

<svg
   width="18"
   height="16"
   viewBox="0 0 4.7624999 4.2333335"
   version="1.1"
   id="svg1098"
   inkscape:version="1.1.2 (0a00cf5339, 2022-02-04)"
   sodipodi:docname="daraz.svg"
   xmlns:inkscape="http://www.inkscape.org/namespaces/inkscape"
   xmlns:sodipodi="http://sodipodi.sourceforge.net/DTD/sodipodi-0.dtd"
   xmlns="http://www.w3.org/2000/svg"
   xmlns:svg="http://www.w3.org/2000/svg">
  <sodipodi:namedview
     id="namedview1100"
     pagecolor="#ffffff"
     bordercolor="#666666"
     borderopacity="1.0"
     inkscape:pageshadow="2"
     inkscape:pageopacity="0.0"
     inkscape:pagecheckerboard="0"
     inkscape:document-units="px"
     showgrid="false"
     units="px"
     inkscape:zoom="16.811523"
     inkscape:cx="9.5470231"
     inkscape:cy="11.331513"
     inkscape:window-width="1600"
     inkscape:window-height="836"
     inkscape:window-x="0"
     inkscape:window-y="27"
     inkscape:window-maximized="1"
     inkscape:current-layer="layer1" />
  <defs
     id="defs1095">
    <style
       id="style1182">.cls-1{fill:#f85501;}</style>
  </defs>
  <g
     inkscape:label="Layer 1"
     inkscape:groupmode="layer"
     id="layer1">
    <path
       class="cls-1"
       d="m 1.4472981,2.1276049 c 0.029857,-0.025963 0.056542,-0.057696 0.090294,-0.077169 0.2632385,-0.1534716 0.5279193,-0.3047796 0.7921675,-0.4565204 0.012692,-0.00736 0.025963,-0.013559 0.045868,-0.023944 0.00145,0.024521 0.00347,0.043272 0.00361,0.061447 q 0,0.402863 0,0.805726 c 0,0.1126516 0.025675,0.1270757 0.1243351,0.070533 Q 2.834311,2.3184348 3.1637557,2.1286146 c 0.074717,-0.043273 0.074572,-0.08265 0,-0.126066 Q 2.7950791,1.7897943 2.4253913,1.5787708 a 0.06562931,0.06562931 0 0 1 -0.038512,-0.066639 c 0.0013,-0.3029044 7.201e-4,-0.60580891 7.201e-4,-0.9087134 0,-0.008943 0,-0.01803 0,-0.0269727 0.00361,-0.0529362 0.031444,-0.069091 0.078034,-0.0432718 0.1177,0.0663505 0.2346789,0.13399915 0.351802,0.20193633 0.1442403,0.0830824 0.2884804,0.16717439 0.4338746,0.24867014 A 0.11092074,0.11092074 0 0 1 3.31492,1.0918164 q -0.00173,1.0104028 0,2.0210942 A 0.11164195,0.11164195 0 0 1 3.2520322,3.2213787 Q 2.8389282,3.4560575 2.4281319,3.6940539 a 0.26713293,0.26713293 0 0 0 -0.024377,0.018175 h -0.03606 a 0.05120529,0.05120529 0 0 0 -0.00966,-0.00894 C 2.0831093,3.544621 1.8076105,3.3882647 1.533554,3.2288792 1.5012442,3.210128 1.4758579,3.1792605 1.4477311,3.1540185 Z"
       id="path1186"
       style="stroke-width:0.0144241" />
  </g>
</svg>
