<svg width="300" height="300" viewBox="0 0 300 300" fill="none" xmlns="http://www.w3.org/2000/svg">
<rect width="300" height="300" fill="white"/>
<path d="M24.8691 15.6H15.6001V24.869H24.8691V15.6Z" fill="black"/>
<path d="M34.138 15.6H24.8691V24.869H34.138V15.6Z" fill="black"/>
<path d="M43.407 15.6H34.138V24.869H43.407V15.6Z" fill="black"/>
<path d="M52.676 15.6H43.407V24.869H52.676V15.6Z" fill="black"/>
<path d="M61.9449 15.6H52.676V24.869H61.9449V15.6Z" fill="black"/>
<path d="M71.2139 15.6H61.9449V24.869H71.2139V15.6Z" fill="black"/>
<path d="M80.4829 15.6H71.2139V24.869H80.4829V15.6Z" fill="black"/>
<path d="M99.0208 15.6H89.7518V24.869H99.0208V15.6Z" fill="black"/>
<path d="M182.441 15.6H173.173V24.869H182.441V15.6Z" fill="black"/>
<path d="M191.71 15.6H182.441V24.869H191.71V15.6Z" fill="black"/>
<path d="M200.979 15.6H191.71V24.869H200.979V15.6Z" fill="black"/>
<path d="M210.248 15.6H200.979V24.869H210.248V15.6Z" fill="black"/>
<path d="M228.786 15.6H219.517V24.869H228.786V15.6Z" fill="black"/>
<path d="M238.055 15.6H228.786V24.869H238.055V15.6Z" fill="black"/>
<path d="M247.324 15.6H238.055V24.869H247.324V15.6Z" fill="black"/>
<path d="M256.593 15.6H247.324V24.869H256.593V15.6Z" fill="black"/>
<path d="M265.862 15.6H256.593V24.869H265.862V15.6Z" fill="black"/>
<path d="M275.131 15.6H265.862V24.869H275.131V15.6Z" fill="black"/>
<path d="M284.4 15.6H275.131V24.869H284.4V15.6Z" fill="black"/>
<path d="M24.8691 24.869H15.6001V34.1379H24.8691V24.869Z" fill="black"/>
<path d="M80.4829 24.869H71.2139V34.1379H80.4829V24.869Z" fill="black"/>
<path d="M126.828 24.869H117.559V34.1379H126.828V24.869Z" fill="black"/>
<path d="M136.097 24.869H126.828V34.1379H136.097V24.869Z" fill="black"/>
<path d="M173.173 24.869H163.904V34.1379H173.173V24.869Z" fill="black"/>
<path d="M182.441 24.869H173.173V34.1379H182.441V24.869Z" fill="black"/>
<path d="M228.786 24.869H219.517V34.1379H228.786V24.869Z" fill="black"/>
<path d="M284.4 24.869H275.131V34.1379H284.4V24.869Z" fill="black"/>
<path d="M24.8691 34.1379H15.6001V43.4069H24.8691V34.1379Z" fill="black"/>
<path d="M43.407 34.1379H34.138V43.4069H43.407V34.1379Z" fill="black"/>
<path d="M52.676 34.1379H43.407V43.4069H52.676V34.1379Z" fill="black"/>
<path d="M61.9449 34.1379H52.676V43.4069H61.9449V34.1379Z" fill="black"/>
<path d="M80.4829 34.1379H71.2139V43.4069H80.4829V34.1379Z" fill="black"/>
<path d="M99.0208 34.1379H89.7518V43.4069H99.0208V34.1379Z" fill="black"/>
<path d="M108.29 34.1379H99.0208V43.4069H108.29V34.1379Z" fill="black"/>
<path d="M126.828 34.1379H117.559V43.4069H126.828V34.1379Z" fill="black"/>
<path d="M145.366 34.1379H136.097V43.4069H145.366V34.1379Z" fill="black"/>
<path d="M154.635 34.1379H145.366V43.4069H154.635V34.1379Z" fill="black"/>
<path d="M173.173 34.1379H163.904V43.4069H173.173V34.1379Z" fill="black"/>
<path d="M200.979 34.1379H191.71V43.4069H200.979V34.1379Z" fill="black"/>
<path d="M228.786 34.1379H219.517V43.4069H228.786V34.1379Z" fill="black"/>
<path d="M247.324 34.1379H238.055V43.4069H247.324V34.1379Z" fill="black"/>
<path d="M256.593 34.1379H247.324V43.4069H256.593V34.1379Z" fill="black"/>
<path d="M265.862 34.1379H256.593V43.4069H265.862V34.1379Z" fill="black"/>
<path d="M284.4 34.1379H275.131V43.4069H284.4V34.1379Z" fill="black"/>
<path d="M24.8691 43.4069H15.6001V52.6759H24.8691V43.4069Z" fill="black"/>
<path d="M43.407 43.4069H34.138V52.6759H43.407V43.4069Z" fill="black"/>
<path d="M52.676 43.4069H43.407V52.6759H52.676V43.4069Z" fill="black"/>
<path d="M61.9449 43.4069H52.676V52.6759H61.9449V43.4069Z" fill="black"/>
<path d="M80.4829 43.4069H71.2139V52.6759H80.4829V43.4069Z" fill="black"/>
<path d="M99.0208 43.4069H89.7518V52.6759H99.0208V43.4069Z" fill="black"/>
<path d="M145.366 43.4069H136.097V52.6759H145.366V43.4069Z" fill="black"/>
<path d="M154.635 43.4069H145.366V52.6759H154.635V43.4069Z" fill="black"/>
<path d="M163.904 43.4069H154.635V52.6759H163.904V43.4069Z" fill="black"/>
<path d="M182.441 43.4069H173.173V52.6759H182.441V43.4069Z" fill="black"/>
<path d="M191.71 43.4069H182.441V52.6759H191.71V43.4069Z" fill="black"/>
<path d="M210.248 43.4069H200.979V52.6759H210.248V43.4069Z" fill="black"/>
<path d="M228.786 43.4069H219.517V52.6759H228.786V43.4069Z" fill="black"/>
<path d="M247.324 43.4069H238.055V52.6759H247.324V43.4069Z" fill="black"/>
<path d="M256.593 43.4069H247.324V52.6759H256.593V43.4069Z" fill="black"/>
<path d="M265.862 43.4069H256.593V52.6759H265.862V43.4069Z" fill="black"/>
<path d="M284.4 43.4069H275.131V52.6759H284.4V43.4069Z" fill="black"/>
<path d="M24.8691 52.6759H15.6001V61.9448H24.8691V52.6759Z" fill="black"/>
<path d="M43.407 52.6759H34.138V61.9448H43.407V52.6759Z" fill="black"/>
<path d="M52.676 52.6759H43.407V61.9448H52.676V52.6759Z" fill="black"/>
<path d="M61.9449 52.6759H52.676V61.9448H61.9449V52.6759Z" fill="black"/>
<path d="M80.4829 52.6759H71.2139V61.9448H80.4829V52.6759Z" fill="black"/>
<path d="M99.0208 52.6759H89.7518V61.9448H99.0208V52.6759Z" fill="black"/>
<path d="M108.29 52.6759H99.0208V61.9448H108.29V52.6759Z" fill="black"/>
<path d="M126.828 52.6759H117.559V61.9448H126.828V52.6759Z" fill="black"/>
<path d="M154.635 52.6759H145.366V61.9448H154.635V52.6759Z" fill="black"/>
<path d="M182.441 52.6759H173.173V61.9448H182.441V52.6759Z" fill="black"/>
<path d="M191.71 52.6759H182.441V61.9448H191.71V52.6759Z" fill="black"/>
<path d="M228.786 52.6759H219.517V61.9448H228.786V52.6759Z" fill="black"/>
<path d="M247.324 52.6759H238.055V61.9448H247.324V52.6759Z" fill="black"/>
<path d="M256.593 52.6759H247.324V61.9448H256.593V52.6759Z" fill="black"/>
<path d="M265.862 52.6759H256.593V61.9448H265.862V52.6759Z" fill="black"/>
<path d="M284.4 52.6759H275.131V61.9448H284.4V52.6759Z" fill="black"/>
<path d="M24.8691 61.9448H15.6001V71.2138H24.8691V61.9448Z" fill="black"/>
<path d="M80.4829 61.9448H71.2139V71.2138H80.4829V61.9448Z" fill="black"/>
<path d="M99.0208 61.9448H89.7518V71.2138H99.0208V61.9448Z" fill="black"/>
<path d="M108.29 61.9448H99.0208V71.2138H108.29V61.9448Z" fill="black"/>
<path d="M117.559 61.9448H108.29V71.2138H117.559V61.9448Z" fill="black"/>
<path d="M136.097 61.9448H126.828V71.2138H136.097V61.9448Z" fill="black"/>
<path d="M145.366 61.9448H136.097V71.2138H145.366V61.9448Z" fill="black"/>
<path d="M163.904 61.9448H154.635V71.2138H163.904V61.9448Z" fill="black"/>
<path d="M173.173 61.9448H163.904V71.2138H173.173V61.9448Z" fill="black"/>
<path d="M182.441 61.9448H173.173V71.2138H182.441V61.9448Z" fill="black"/>
<path d="M228.786 61.9448H219.517V71.2138H228.786V61.9448Z" fill="black"/>
<path d="M284.4 61.9448H275.131V71.2138H284.4V61.9448Z" fill="black"/>
<path d="M24.8691 71.2138H15.6001V80.4828H24.8691V71.2138Z" fill="black"/>
<path d="M34.138 71.2138H24.8691V80.4828H34.138V71.2138Z" fill="black"/>
<path d="M43.407 71.2138H34.138V80.4828H43.407V71.2138Z" fill="black"/>
<path d="M52.676 71.2138H43.407V80.4828H52.676V71.2138Z" fill="black"/>
<path d="M61.9449 71.2138H52.676V80.4828H61.9449V71.2138Z" fill="black"/>
<path d="M71.2139 71.2138H61.9449V80.4828H71.2139V71.2138Z" fill="black"/>
<path d="M80.4829 71.2138H71.2139V80.4828H80.4829V71.2138Z" fill="black"/>
<path d="M99.0208 71.2138H89.7518V80.4828H99.0208V71.2138Z" fill="black"/>
<path d="M117.559 71.2138H108.29V80.4828H117.559V71.2138Z" fill="black"/>
<path d="M136.097 71.2138H126.828V80.4828H136.097V71.2138Z" fill="black"/>
<path d="M154.635 71.2138H145.366V80.4828H154.635V71.2138Z" fill="black"/>
<path d="M173.173 71.2138H163.904V80.4828H173.173V71.2138Z" fill="black"/>
<path d="M191.71 71.2138H182.441V80.4828H191.71V71.2138Z" fill="black"/>
<path d="M210.248 71.2138H200.979V80.4828H210.248V71.2138Z" fill="black"/>
<path d="M228.786 71.2138H219.517V80.4828H228.786V71.2138Z" fill="black"/>
<path d="M238.055 71.2138H228.786V80.4828H238.055V71.2138Z" fill="black"/>
<path d="M247.324 71.2138H238.055V80.4828H247.324V71.2138Z" fill="black"/>
<path d="M256.593 71.2138H247.324V80.4828H256.593V71.2138Z" fill="black"/>
<path d="M265.862 71.2138H256.593V80.4828H265.862V71.2138Z" fill="black"/>
<path d="M275.131 71.2138H265.862V80.4828H275.131V71.2138Z" fill="black"/>
<path d="M284.4 71.2138H275.131V80.4828H284.4V71.2138Z" fill="black"/>
<path d="M108.29 80.4828H99.0208V89.7517H108.29V80.4828Z" fill="black"/>
<path d="M136.097 80.4828H126.828V89.7517H136.097V80.4828Z" fill="black"/>
<path d="M173.173 80.4828H163.904V89.7517H173.173V80.4828Z" fill="black"/>
<path d="M191.71 80.4828H182.441V89.7517H191.71V80.4828Z" fill="black"/>
<path d="M200.979 80.4828H191.71V89.7517H200.979V80.4828Z" fill="black"/>
<path d="M210.248 80.4828H200.979V89.7517H210.248V80.4828Z" fill="black"/>
<path d="M43.407 89.7517H34.138V99.0207H43.407V89.7517Z" fill="black"/>
<path d="M52.676 89.7517H43.407V99.0207H52.676V89.7517Z" fill="black"/>
<path d="M61.9449 89.7517H52.676V99.0207H61.9449V89.7517Z" fill="black"/>
<path d="M71.2139 89.7517H61.9449V99.0207H71.2139V89.7517Z" fill="black"/>
<path d="M80.4829 89.7517H71.2139V99.0207H80.4829V89.7517Z" fill="black"/>
<path d="M89.7518 89.7517H80.4829V99.0207H89.7518V89.7517Z" fill="black"/>
<path d="M136.097 89.7517H126.828V99.0207H136.097V89.7517Z" fill="black"/>
<path d="M145.366 89.7517H136.097V99.0207H145.366V89.7517Z" fill="black"/>
<path d="M163.904 89.7517H154.635V99.0207H163.904V89.7517Z" fill="black"/>
<path d="M200.979 89.7517H191.71V99.0207H200.979V89.7517Z" fill="black"/>
<path d="M219.517 89.7517H210.248V99.0207H219.517V89.7517Z" fill="black"/>
<path d="M238.055 89.7517H228.786V99.0207H238.055V89.7517Z" fill="black"/>
<path d="M247.324 89.7517H238.055V99.0207H247.324V89.7517Z" fill="black"/>
<path d="M256.593 89.7517H247.324V99.0207H256.593V89.7517Z" fill="black"/>
<path d="M265.862 89.7517H256.593V99.0207H265.862V89.7517Z" fill="black"/>
<path d="M284.4 89.7517H275.131V99.0207H284.4V89.7517Z" fill="black"/>
<path d="M24.8691 99.0207H15.6001V108.29H24.8691V99.0207Z" fill="black"/>
<path d="M34.138 99.0207H24.8691V108.29H34.138V99.0207Z" fill="black"/>
<path d="M43.407 99.0207H34.138V108.29H43.407V99.0207Z" fill="black"/>
<path d="M61.9449 99.0207H52.676V108.29H61.9449V99.0207Z" fill="black"/>
<path d="M71.2139 99.0207H61.9449V108.29H71.2139V99.0207Z" fill="black"/>
<path d="M99.0208 99.0207H89.7518V108.29H99.0208V99.0207Z" fill="black"/>
<path d="M108.29 99.0207H99.0208V108.29H108.29V99.0207Z" fill="black"/>
<path d="M126.828 99.0207H117.559V108.29H126.828V99.0207Z" fill="black"/>
<path d="M136.097 99.0207H126.828V108.29H136.097V99.0207Z" fill="black"/>
<path d="M163.904 99.0207H154.635V108.29H163.904V99.0207Z" fill="black"/>
<path d="M182.441 99.0207H173.173V108.29H182.441V99.0207Z" fill="black"/>
<path d="M200.979 99.0207H191.71V108.29H200.979V99.0207Z" fill="black"/>
<path d="M228.786 99.0207H219.517V108.29H228.786V99.0207Z" fill="black"/>
<path d="M238.055 99.0207H228.786V108.29H238.055V99.0207Z" fill="black"/>
<path d="M247.324 99.0207H238.055V108.29H247.324V99.0207Z" fill="black"/>
<path d="M265.862 99.0207H256.593V108.29H265.862V99.0207Z" fill="black"/>
<path d="M275.131 99.0207H265.862V108.29H275.131V99.0207Z" fill="black"/>
<path d="M284.4 99.0207H275.131V108.29H284.4V99.0207Z" fill="black"/>
<path d="M24.8691 108.29H15.6001V117.559H24.8691V108.29Z" fill="black"/>
<path d="M34.138 108.29H24.8691V117.559H34.138V108.29Z" fill="black"/>
<path d="M71.2139 108.29H61.9449V117.559H71.2139V108.29Z" fill="black"/>
<path d="M80.4829 108.29H71.2139V117.559H80.4829V108.29Z" fill="black"/>
<path d="M99.0208 108.29H89.7518V117.559H99.0208V108.29Z" fill="black"/>
<path d="M117.559 108.29H108.29V117.559H117.559V108.29Z" fill="black"/>
<path d="M136.097 108.29H126.828V117.559H136.097V108.29Z" fill="black"/>
<path d="M154.635 108.29H145.366V117.559H154.635V108.29Z" fill="black"/>
<path d="M182.441 108.29H173.173V117.559H182.441V108.29Z" fill="black"/>
<path d="M210.248 108.29H200.979V117.559H210.248V108.29Z" fill="black"/>
<path d="M228.786 108.29H219.517V117.559H228.786V108.29Z" fill="black"/>
<path d="M238.055 108.29H228.786V117.559H238.055V108.29Z" fill="black"/>
<path d="M256.593 108.29H247.324V117.559H256.593V108.29Z" fill="black"/>
<path d="M265.862 108.29H256.593V117.559H265.862V108.29Z" fill="black"/>
<path d="M275.131 108.29H265.862V117.559H275.131V108.29Z" fill="black"/>
<path d="M284.4 108.29H275.131V117.559H284.4V108.29Z" fill="black"/>
<path d="M34.138 117.559H24.8691V126.828H34.138V117.559Z" fill="black"/>
<path d="M52.676 117.559H43.407V126.828H52.676V117.559Z" fill="black"/>
<path d="M61.9449 117.559H52.676V126.828H61.9449V117.559Z" fill="black"/>
<path d="M71.2139 117.559H61.9449V126.828H71.2139V117.559Z" fill="black"/>
<path d="M89.7518 117.559H80.4829V126.828H89.7518V117.559Z" fill="black"/>
<path d="M126.828 117.559H117.559V126.828H126.828V117.559Z" fill="black"/>
<path d="M154.635 117.559H145.366V126.828H154.635V117.559Z" fill="black"/>
<path d="M182.441 117.559H173.173V126.828H182.441V117.559Z" fill="black"/>
<path d="M191.71 117.559H182.441V126.828H191.71V117.559Z" fill="black"/>
<path d="M219.517 117.559H210.248V126.828H219.517V117.559Z" fill="black"/>
<path d="M238.055 117.559H228.786V126.828H238.055V117.559Z" fill="black"/>
<path d="M265.862 117.559H256.593V126.828H265.862V117.559Z" fill="black"/>
<path d="M34.138 126.828H24.8691V136.097H34.138V126.828Z" fill="black"/>
<path d="M52.676 126.828H43.407V136.097H52.676V126.828Z" fill="black"/>
<path d="M80.4829 126.828H71.2139V136.097H80.4829V126.828Z" fill="black"/>
<path d="M99.0208 126.828H89.7518V136.097H99.0208V126.828Z" fill="black"/>
<path d="M117.559 126.828H108.29V136.097H117.559V126.828Z" fill="black"/>
<path d="M126.828 126.828H117.559V136.097H126.828V126.828Z" fill="black"/>
<path d="M136.097 126.828H126.828V136.097H136.097V126.828Z" fill="black"/>
<path d="M163.904 126.828H154.635V136.097H163.904V126.828Z" fill="black"/>
<path d="M182.441 126.828H173.173V136.097H182.441V126.828Z" fill="black"/>
<path d="M210.248 126.828H200.979V136.097H210.248V126.828Z" fill="black"/>
<path d="M228.786 126.828H219.517V136.097H228.786V126.828Z" fill="black"/>
<path d="M238.055 126.828H228.786V136.097H238.055V126.828Z" fill="black"/>
<path d="M247.324 126.828H238.055V136.097H247.324V126.828Z" fill="black"/>
<path d="M256.593 126.828H247.324V136.097H256.593V126.828Z" fill="black"/>
<path d="M265.862 126.828H256.593V136.097H265.862V126.828Z" fill="black"/>
<path d="M275.131 126.828H265.862V136.097H275.131V126.828Z" fill="black"/>
<path d="M284.4 126.828H275.131V136.097H284.4V126.828Z" fill="black"/>
<path d="M24.8691 136.097H15.6001V145.366H24.8691V136.097Z" fill="black"/>
<path d="M52.676 136.097H43.407V145.366H52.676V136.097Z" fill="black"/>
<path d="M99.0208 136.097H89.7518V145.366H99.0208V136.097Z" fill="black"/>
<path d="M117.559 136.097H108.29V145.366H117.559V136.097Z" fill="black"/>
<path d="M145.366 136.097H136.097V145.366H145.366V136.097Z" fill="black"/>
<path d="M154.635 136.097H145.366V145.366H154.635V136.097Z" fill="black"/>
<path d="M163.904 136.097H154.635V145.366H163.904V136.097Z" fill="black"/>
<path d="M219.517 136.097H210.248V145.366H219.517V136.097Z" fill="black"/>
<path d="M228.786 136.097H219.517V145.366H228.786V136.097Z" fill="black"/>
<path d="M238.055 136.097H228.786V145.366H238.055V136.097Z" fill="black"/>
<path d="M256.593 136.097H247.324V145.366H256.593V136.097Z" fill="black"/>
<path d="M275.131 136.097H265.862V145.366H275.131V136.097Z" fill="black"/>
<path d="M284.4 136.097H275.131V145.366H284.4V136.097Z" fill="black"/>
<path d="M43.407 145.366H34.138V154.634H43.407V145.366Z" fill="black"/>
<path d="M52.676 145.366H43.407V154.634H52.676V145.366Z" fill="black"/>
<path d="M71.2139 145.366H61.9449V154.634H71.2139V145.366Z" fill="black"/>
<path d="M80.4829 145.366H71.2139V154.634H80.4829V145.366Z" fill="black"/>
<path d="M89.7518 145.366H80.4829V154.634H89.7518V145.366Z" fill="black"/>
<path d="M99.0208 145.366H89.7518V154.634H99.0208V145.366Z" fill="black"/>
<path d="M108.29 145.366H99.0208V154.634H108.29V145.366Z" fill="black"/>
<path d="M117.559 145.366H108.29V154.634H117.559V145.366Z" fill="black"/>
<path d="M126.828 145.366H117.559V154.634H126.828V145.366Z" fill="black"/>
<path d="M154.635 145.366H145.366V154.634H154.635V145.366Z" fill="black"/>
<path d="M173.173 145.366H163.904V154.634H173.173V145.366Z" fill="black"/>
<path d="M200.979 145.366H191.71V154.634H200.979V145.366Z" fill="black"/>
<path d="M219.517 145.366H210.248V154.634H219.517V145.366Z" fill="black"/>
<path d="M228.786 145.366H219.517V154.634H228.786V145.366Z" fill="black"/>
<path d="M247.324 145.366H238.055V154.634H247.324V145.366Z" fill="black"/>
<path d="M284.4 145.366H275.131V154.634H284.4V145.366Z" fill="black"/>
<path d="M34.138 154.634H24.8691V163.903H34.138V154.634Z" fill="black"/>
<path d="M52.676 154.634H43.407V163.903H52.676V154.634Z" fill="black"/>
<path d="M71.2139 154.634H61.9449V163.903H71.2139V154.634Z" fill="black"/>
<path d="M89.7518 154.634H80.4829V163.903H89.7518V154.634Z" fill="black"/>
<path d="M99.0208 154.634H89.7518V163.903H99.0208V154.634Z" fill="black"/>
<path d="M117.559 154.634H108.29V163.903H117.559V154.634Z" fill="black"/>
<path d="M136.097 154.634H126.828V163.903H136.097V154.634Z" fill="black"/>
<path d="M154.635 154.634H145.366V163.903H154.635V154.634Z" fill="black"/>
<path d="M191.71 154.634H182.441V163.903H191.71V154.634Z" fill="black"/>
<path d="M200.979 154.634H191.71V163.903H200.979V154.634Z" fill="black"/>
<path d="M219.517 154.634H210.248V163.903H219.517V154.634Z" fill="black"/>
<path d="M228.786 154.634H219.517V163.903H228.786V154.634Z" fill="black"/>
<path d="M238.055 154.634H228.786V163.903H238.055V154.634Z" fill="black"/>
<path d="M247.324 154.634H238.055V163.903H247.324V154.634Z" fill="black"/>
<path d="M256.593 154.634H247.324V163.903H256.593V154.634Z" fill="black"/>
<path d="M265.862 154.634H256.593V163.903H265.862V154.634Z" fill="black"/>
<path d="M275.131 154.634H265.862V163.903H275.131V154.634Z" fill="black"/>
<path d="M284.4 154.634H275.131V163.903H284.4V154.634Z" fill="black"/>
<path d="M24.8691 163.903H15.6001V173.172H24.8691V163.903Z" fill="black"/>
<path d="M43.407 163.903H34.138V173.172H43.407V163.903Z" fill="black"/>
<path d="M52.676 163.903H43.407V173.172H52.676V163.903Z" fill="black"/>
<path d="M61.9449 163.903H52.676V173.172H61.9449V163.903Z" fill="black"/>
<path d="M71.2139 163.903H61.9449V173.172H71.2139V163.903Z" fill="black"/>
<path d="M80.4829 163.903H71.2139V173.172H80.4829V163.903Z" fill="black"/>
<path d="M89.7518 163.903H80.4829V173.172H89.7518V163.903Z" fill="black"/>
<path d="M108.29 163.903H99.0208V173.172H108.29V163.903Z" fill="black"/>
<path d="M136.097 163.903H126.828V173.172H136.097V163.903Z" fill="black"/>
<path d="M145.366 163.903H136.097V173.172H145.366V163.903Z" fill="black"/>
<path d="M154.635 163.903H145.366V173.172H154.635V163.903Z" fill="black"/>
<path d="M163.904 163.903H154.635V173.172H163.904V163.903Z" fill="black"/>
<path d="M191.71 163.903H182.441V173.172H191.71V163.903Z" fill="black"/>
<path d="M219.517 163.903H210.248V173.172H219.517V163.903Z" fill="black"/>
<path d="M228.786 163.903H219.517V173.172H228.786V163.903Z" fill="black"/>
<path d="M256.593 163.903H247.324V173.172H256.593V163.903Z" fill="black"/>
<path d="M265.862 163.903H256.593V173.172H265.862V163.903Z" fill="black"/>
<path d="M275.131 163.903H265.862V173.172H275.131V163.903Z" fill="black"/>
<path d="M61.9449 173.172H52.676V182.441H61.9449V173.172Z" fill="black"/>
<path d="M71.2139 173.172H61.9449V182.441H71.2139V173.172Z" fill="black"/>
<path d="M108.29 173.172H99.0208V182.441H108.29V173.172Z" fill="black"/>
<path d="M136.097 173.172H126.828V182.441H136.097V173.172Z" fill="black"/>
<path d="M154.635 173.172H145.366V182.441H154.635V173.172Z" fill="black"/>
<path d="M173.173 173.172H163.904V182.441H173.173V173.172Z" fill="black"/>
<path d="M210.248 173.172H200.979V182.441H210.248V173.172Z" fill="black"/>
<path d="M228.786 173.172H219.517V182.441H228.786V173.172Z" fill="black"/>
<path d="M256.593 173.172H247.324V182.441H256.593V173.172Z" fill="black"/>
<path d="M265.862 173.172H256.593V182.441H265.862V173.172Z" fill="black"/>
<path d="M71.2139 182.441H61.9449V191.71H71.2139V182.441Z" fill="black"/>
<path d="M80.4829 182.441H71.2139V191.71H80.4829V182.441Z" fill="black"/>
<path d="M89.7518 182.441H80.4829V191.71H89.7518V182.441Z" fill="black"/>
<path d="M108.29 182.441H99.0208V191.71H108.29V182.441Z" fill="black"/>
<path d="M117.559 182.441H108.29V191.71H117.559V182.441Z" fill="black"/>
<path d="M126.828 182.441H117.559V191.71H126.828V182.441Z" fill="black"/>
<path d="M145.366 182.441H136.097V191.71H145.366V182.441Z" fill="black"/>
<path d="M182.441 182.441H173.173V191.71H182.441V182.441Z" fill="black"/>
<path d="M200.979 182.441H191.71V191.71H200.979V182.441Z" fill="black"/>
<path d="M210.248 182.441H200.979V191.71H210.248V182.441Z" fill="black"/>
<path d="M228.786 182.441H219.517V191.71H228.786V182.441Z" fill="black"/>
<path d="M238.055 182.441H228.786V191.71H238.055V182.441Z" fill="black"/>
<path d="M256.593 182.441H247.324V191.71H256.593V182.441Z" fill="black"/>
<path d="M265.862 182.441H256.593V191.71H265.862V182.441Z" fill="black"/>
<path d="M24.8691 191.71H15.6001V200.979H24.8691V191.71Z" fill="black"/>
<path d="M43.407 191.71H34.138V200.979H43.407V191.71Z" fill="black"/>
<path d="M108.29 191.71H99.0208V200.979H108.29V191.71Z" fill="black"/>
<path d="M200.979 191.71H191.71V200.979H200.979V191.71Z" fill="black"/>
<path d="M238.055 191.71H228.786V200.979H238.055V191.71Z" fill="black"/>
<path d="M256.593 191.71H247.324V200.979H256.593V191.71Z" fill="black"/>
<path d="M265.862 191.71H256.593V200.979H265.862V191.71Z" fill="black"/>
<path d="M34.138 200.979H24.8691V210.248H34.138V200.979Z" fill="black"/>
<path d="M43.407 200.979H34.138V210.248H43.407V200.979Z" fill="black"/>
<path d="M61.9449 200.979H52.676V210.248H61.9449V200.979Z" fill="black"/>
<path d="M71.2139 200.979H61.9449V210.248H71.2139V200.979Z" fill="black"/>
<path d="M80.4829 200.979H71.2139V210.248H80.4829V200.979Z" fill="black"/>
<path d="M99.0208 200.979H89.7518V210.248H99.0208V200.979Z" fill="black"/>
<path d="M108.29 200.979H99.0208V210.248H108.29V200.979Z" fill="black"/>
<path d="M126.828 200.979H117.559V210.248H126.828V200.979Z" fill="black"/>
<path d="M136.097 200.979H126.828V210.248H136.097V200.979Z" fill="black"/>
<path d="M145.366 200.979H136.097V210.248H145.366V200.979Z" fill="black"/>
<path d="M154.635 200.979H145.366V210.248H154.635V200.979Z" fill="black"/>
<path d="M163.904 200.979H154.635V210.248H163.904V200.979Z" fill="black"/>
<path d="M173.173 200.979H163.904V210.248H173.173V200.979Z" fill="black"/>
<path d="M182.441 200.979H173.173V210.248H182.441V200.979Z" fill="black"/>
<path d="M191.71 200.979H182.441V210.248H191.71V200.979Z" fill="black"/>
<path d="M210.248 200.979H200.979V210.248H210.248V200.979Z" fill="black"/>
<path d="M219.517 200.979H210.248V210.248H219.517V200.979Z" fill="black"/>
<path d="M228.786 200.979H219.517V210.248H228.786V200.979Z" fill="black"/>
<path d="M238.055 200.979H228.786V210.248H238.055V200.979Z" fill="black"/>
<path d="M247.324 200.979H238.055V210.248H247.324V200.979Z" fill="black"/>
<path d="M256.593 200.979H247.324V210.248H256.593V200.979Z" fill="black"/>
<path d="M265.862 200.979H256.593V210.248H265.862V200.979Z" fill="black"/>
<path d="M275.131 200.979H265.862V210.248H275.131V200.979Z" fill="black"/>
<path d="M108.29 210.248H99.0208V219.517H108.29V210.248Z" fill="black"/>
<path d="M145.366 210.248H136.097V219.517H145.366V210.248Z" fill="black"/>
<path d="M173.173 210.248H163.904V219.517H173.173V210.248Z" fill="black"/>
<path d="M182.441 210.248H173.173V219.517H182.441V210.248Z" fill="black"/>
<path d="M210.248 210.248H200.979V219.517H210.248V210.248Z" fill="black"/>
<path d="M247.324 210.248H238.055V219.517H247.324V210.248Z" fill="black"/>
<path d="M275.131 210.248H265.862V219.517H275.131V210.248Z" fill="black"/>
<path d="M284.4 210.248H275.131V219.517H284.4V210.248Z" fill="black"/>
<path d="M24.8691 219.517H15.6001V228.786H24.8691V219.517Z" fill="black"/>
<path d="M34.138 219.517H24.8691V228.786H34.138V219.517Z" fill="black"/>
<path d="M43.407 219.517H34.138V228.786H43.407V219.517Z" fill="black"/>
<path d="M52.676 219.517H43.407V228.786H52.676V219.517Z" fill="black"/>
<path d="M61.9449 219.517H52.676V228.786H61.9449V219.517Z" fill="black"/>
<path d="M71.2139 219.517H61.9449V228.786H71.2139V219.517Z" fill="black"/>
<path d="M80.4829 219.517H71.2139V228.786H80.4829V219.517Z" fill="black"/>
<path d="M99.0208 219.517H89.7518V228.786H99.0208V219.517Z" fill="black"/>
<path d="M108.29 219.517H99.0208V228.786H108.29V219.517Z" fill="black"/>
<path d="M126.828 219.517H117.559V228.786H126.828V219.517Z" fill="black"/>
<path d="M145.366 219.517H136.097V228.786H145.366V219.517Z" fill="black"/>
<path d="M182.441 219.517H173.173V228.786H182.441V219.517Z" fill="black"/>
<path d="M191.71 219.517H182.441V228.786H191.71V219.517Z" fill="black"/>
<path d="M200.979 219.517H191.71V228.786H200.979V219.517Z" fill="black"/>
<path d="M210.248 219.517H200.979V228.786H210.248V219.517Z" fill="black"/>
<path d="M228.786 219.517H219.517V228.786H228.786V219.517Z" fill="black"/>
<path d="M247.324 219.517H238.055V228.786H247.324V219.517Z" fill="black"/>
<path d="M265.862 219.517H256.593V228.786H265.862V219.517Z" fill="black"/>
<path d="M284.4 219.517H275.131V228.786H284.4V219.517Z" fill="black"/>
<path d="M24.8691 228.786H15.6001V238.055H24.8691V228.786Z" fill="black"/>
<path d="M80.4829 228.786H71.2139V238.055H80.4829V228.786Z" fill="black"/>
<path d="M99.0208 228.786H89.7518V238.055H99.0208V228.786Z" fill="black"/>
<path d="M108.29 228.786H99.0208V238.055H108.29V228.786Z" fill="black"/>
<path d="M117.559 228.786H108.29V238.055H117.559V228.786Z" fill="black"/>
<path d="M145.366 228.786H136.097V238.055H145.366V228.786Z" fill="black"/>
<path d="M173.173 228.786H163.904V238.055H173.173V228.786Z" fill="black"/>
<path d="M182.441 228.786H173.173V238.055H182.441V228.786Z" fill="black"/>
<path d="M200.979 228.786H191.71V238.055H200.979V228.786Z" fill="black"/>
<path d="M210.248 228.786H200.979V238.055H210.248V228.786Z" fill="black"/>
<path d="M247.324 228.786H238.055V238.055H247.324V228.786Z" fill="black"/>
<path d="M275.131 228.786H265.862V238.055H275.131V228.786Z" fill="black"/>
<path d="M284.4 228.786H275.131V238.055H284.4V228.786Z" fill="black"/>
<path d="M24.8691 238.055H15.6001V247.324H24.8691V238.055Z" fill="black"/>
<path d="M43.407 238.055H34.138V247.324H43.407V238.055Z" fill="black"/>
<path d="M52.676 238.055H43.407V247.324H52.676V238.055Z" fill="black"/>
<path d="M61.9449 238.055H52.676V247.324H61.9449V238.055Z" fill="black"/>
<path d="M80.4829 238.055H71.2139V247.324H80.4829V238.055Z" fill="black"/>
<path d="M99.0208 238.055H89.7518V247.324H99.0208V238.055Z" fill="black"/>
<path d="M108.29 238.055H99.0208V247.324H108.29V238.055Z" fill="black"/>
<path d="M117.559 238.055H108.29V247.324H117.559V238.055Z" fill="black"/>
<path d="M126.828 238.055H117.559V247.324H126.828V238.055Z" fill="black"/>
<path d="M145.366 238.055H136.097V247.324H145.366V238.055Z" fill="black"/>
<path d="M154.635 238.055H145.366V247.324H154.635V238.055Z" fill="black"/>
<path d="M163.904 238.055H154.635V247.324H163.904V238.055Z" fill="black"/>
<path d="M182.441 238.055H173.173V247.324H182.441V238.055Z" fill="black"/>
<path d="M210.248 238.055H200.979V247.324H210.248V238.055Z" fill="black"/>
<path d="M219.517 238.055H210.248V247.324H219.517V238.055Z" fill="black"/>
<path d="M228.786 238.055H219.517V247.324H228.786V238.055Z" fill="black"/>
<path d="M238.055 238.055H228.786V247.324H238.055V238.055Z" fill="black"/>
<path d="M247.324 238.055H238.055V247.324H247.324V238.055Z" fill="black"/>
<path d="M265.862 238.055H256.593V247.324H265.862V238.055Z" fill="black"/>
<path d="M284.4 238.055H275.131V247.324H284.4V238.055Z" fill="black"/>
<path d="M24.8691 247.324H15.6001V256.593H24.8691V247.324Z" fill="black"/>
<path d="M43.407 247.324H34.138V256.593H43.407V247.324Z" fill="black"/>
<path d="M52.676 247.324H43.407V256.593H52.676V247.324Z" fill="black"/>
<path d="M61.9449 247.324H52.676V256.593H61.9449V247.324Z" fill="black"/>
<path d="M80.4829 247.324H71.2139V256.593H80.4829V247.324Z" fill="black"/>
<path d="M99.0208 247.324H89.7518V256.593H99.0208V247.324Z" fill="black"/>
<path d="M126.828 247.324H117.559V256.593H126.828V247.324Z" fill="black"/>
<path d="M136.097 247.324H126.828V256.593H136.097V247.324Z" fill="black"/>
<path d="M154.635 247.324H145.366V256.593H154.635V247.324Z" fill="black"/>
<path d="M173.173 247.324H163.904V256.593H173.173V247.324Z" fill="black"/>
<path d="M219.517 247.324H210.248V256.593H219.517V247.324Z" fill="black"/>
<path d="M228.786 247.324H219.517V256.593H228.786V247.324Z" fill="black"/>
<path d="M256.593 247.324H247.324V256.593H256.593V247.324Z" fill="black"/>
<path d="M265.862 247.324H256.593V256.593H265.862V247.324Z" fill="black"/>
<path d="M275.131 247.324H265.862V256.593H275.131V247.324Z" fill="black"/>
<path d="M24.8691 256.593H15.6001V265.862H24.8691V256.593Z" fill="black"/>
<path d="M43.407 256.593H34.138V265.862H43.407V256.593Z" fill="black"/>
<path d="M52.676 256.593H43.407V265.862H52.676V256.593Z" fill="black"/>
<path d="M61.9449 256.593H52.676V265.862H61.9449V256.593Z" fill="black"/>
<path d="M80.4829 256.593H71.2139V265.862H80.4829V256.593Z" fill="black"/>
<path d="M99.0208 256.593H89.7518V265.862H99.0208V256.593Z" fill="black"/>
<path d="M136.097 256.593H126.828V265.862H136.097V256.593Z" fill="black"/>
<path d="M154.635 256.593H145.366V265.862H154.635V256.593Z" fill="black"/>
<path d="M173.173 256.593H163.904V265.862H173.173V256.593Z" fill="black"/>
<path d="M182.441 256.593H173.173V265.862H182.441V256.593Z" fill="black"/>
<path d="M191.71 256.593H182.441V265.862H191.71V256.593Z" fill="black"/>
<path d="M210.248 256.593H200.979V265.862H210.248V256.593Z" fill="black"/>
<path d="M219.517 256.593H210.248V265.862H219.517V256.593Z" fill="black"/>
<path d="M228.786 256.593H219.517V265.862H228.786V256.593Z" fill="black"/>
<path d="M247.324 256.593H238.055V265.862H247.324V256.593Z" fill="black"/>
<path d="M256.593 256.593H247.324V265.862H256.593V256.593Z" fill="black"/>
<path d="M265.862 256.593H256.593V265.862H265.862V256.593Z" fill="black"/>
<path d="M284.4 256.593H275.131V265.862H284.4V256.593Z" fill="black"/>
<path d="M24.8691 265.862H15.6001V275.131H24.8691V265.862Z" fill="black"/>
<path d="M80.4829 265.862H71.2139V275.131H80.4829V265.862Z" fill="black"/>
<path d="M126.828 265.862H117.559V275.131H126.828V265.862Z" fill="black"/>
<path d="M163.904 265.862H154.635V275.131H163.904V265.862Z" fill="black"/>
<path d="M200.979 265.862H191.71V275.131H200.979V265.862Z" fill="black"/>
<path d="M210.248 265.862H200.979V275.131H210.248V265.862Z" fill="black"/>
<path d="M219.517 265.862H210.248V275.131H219.517V265.862Z" fill="black"/>
<path d="M256.593 265.862H247.324V275.131H256.593V265.862Z" fill="black"/>
<path d="M265.862 265.862H256.593V275.131H265.862V265.862Z" fill="black"/>
<path d="M275.131 265.862H265.862V275.131H275.131V265.862Z" fill="black"/>
<path d="M24.8691 275.131H15.6001V284.4H24.8691V275.131Z" fill="black"/>
<path d="M34.138 275.131H24.8691V284.4H34.138V275.131Z" fill="black"/>
<path d="M43.407 275.131H34.138V284.4H43.407V275.131Z" fill="black"/>
<path d="M52.676 275.131H43.407V284.4H52.676V275.131Z" fill="black"/>
<path d="M61.9449 275.131H52.676V284.4H61.9449V275.131Z" fill="black"/>
<path d="M71.2139 275.131H61.9449V284.4H71.2139V275.131Z" fill="black"/>
<path d="M80.4829 275.131H71.2139V284.4H80.4829V275.131Z" fill="black"/>
<path d="M108.29 275.131H99.0208V284.4H108.29V275.131Z" fill="black"/>
<path d="M145.366 275.131H136.097V284.4H145.366V275.131Z" fill="black"/>
<path d="M182.441 275.131H173.173V284.4H182.441V275.131Z" fill="black"/>
<path d="M210.248 275.131H200.979V284.4H210.248V275.131Z" fill="black"/>
<path d="M219.517 275.131H210.248V284.4H219.517V275.131Z" fill="black"/>
<path d="M238.055 275.131H228.786V284.4H238.055V275.131Z" fill="black"/>
<path d="M256.593 275.131H247.324V284.4H256.593V275.131Z" fill="black"/>
</svg>
