<?xml version="1.0" encoding="UTF-8" standalone="no"?>
<!-- Created with Inkscape (http://www.inkscape.org/) -->

<svg
   width="48"
   height="48"
   viewBox="0 0 12.7 12.7"
   version="1.1"
   id="svg32862"
   inkscape:version="1.1.2 (0a00cf5339, 2022-02-04)"
   sodipodi:docname="header-logo.svg"
   xmlns:inkscape="http://www.inkscape.org/namespaces/inkscape"
   xmlns:sodipodi="http://sodipodi.sourceforge.net/DTD/sodipodi-0.dtd"
   xmlns="http://www.w3.org/2000/svg"
   xmlns:svg="http://www.w3.org/2000/svg">
  <sodipodi:namedview
     id="namedview32864"
     pagecolor="#ffffff"
     bordercolor="#666666"
     borderopacity="1.0"
     inkscape:pageshadow="2"
     inkscape:pageopacity="0.0"
     inkscape:pagecheckerboard="0"
     inkscape:document-units="px"
     showgrid="false"
     units="px"
     inkscape:zoom="4.732211"
     inkscape:cx="51.033227"
     inkscape:cy="10.14325"
     inkscape:window-width="1920"
     inkscape:window-height="1043"
     inkscape:window-x="1600"
     inkscape:window-y="0"
     inkscape:window-maximized="1"
     inkscape:current-layer="layer1" />
  <defs
     id="defs32859" />
  <g
     inkscape:label="Layer 1"
     inkscape:groupmode="layer"
     id="layer1">
    <g
       id="g33211"
       transform="matrix(0.56483691,0,0,0.56483691,-17.730468,4.000825)">
      <path
         style="fill:#2a735e;fill-opacity:1;stroke:none;stroke-width:0.0519144"
         d="m 35.354193,-6.849838 c -2.5638,2.563799 -4.97165,6.870884 -2.94423,10.434816 0.27307,0.480002 0.62505,0.914889 1.02339,1.295837 0.55803,0.533578 1.31188,1.11824 2.07658,1.299887 -0.6197,-1.831854 -1.16813,-3.590769 -1.03362,-5.554851 0.0572,-0.835356 0.35193,-1.618486 0.46256,-2.439982 0.0938,0.317095 0.0396,0.658535 0.0539,0.986377 0.025,0.570279 0.0937,1.14596 0.16177,1.713178 0.18767,1.563353 0.61856,3.053558 1.18598,4.516561 0.32115,-0.149773 0.52683,-0.447035 0.73283,-0.726802 0.42845,-0.581962 0.78656,-1.197356 1.05298,-1.868922 0.49397,-1.245066 0.67172,-2.624746 0.42264,-3.945502 -0.2371,-1.257162 -0.82991,-2.399075 -1.49145,-3.478274 -0.45846,-0.747879 -0.99962,-1.694124 -1.70337,-2.232323 z"
         id="path422-5-7-6-9-2" />
      <path
         style="fill:#2a735e;fill-opacity:1;stroke:none;stroke-width:0.0519144"
         d="m 36.703973,8.672598 c 0.35421,-0.249501 0.65671,-0.578431 0.98637,-0.860326 0.57755,-0.493862 1.20447,-0.956525 1.86892,-1.327247 1.6201,-0.903936 3.72565,-1.240913 5.55485,-1.016277 0.83271,0.102271 1.58329,0.417392 2.38807,0.608126 -0.66996,0.198053 -1.48512,0.0089 -2.18041,0.05654 -1.47961,0.101336 -2.82176,0.380377 -4.15316,1.046493 -1.31956,0.660195 -2.45311,1.636604 -3.47749,2.686731 -0.70292,0.720574 -1.30523,1.528778 -1.90236,2.336153 -0.36033,0.487216 -0.81485,1.040366 -1.03325,1.609349 -0.31715,0.826375 0.50082,1.660435 1.32543,1.245948 0.38822,-0.195147 0.53088,-0.620066 0.71403,-0.986375 0.34201,-0.684079 0.70474,-1.358759 1.08102,-2.024666 0.12755,-0.225828 0.24939,-0.453837 0.38557,-0.674786 0.0578,-0.09386 0.1263,-0.244361 0.2428,-0.277067 0.1057,-0.0297 0.23554,0.0597 0.32831,0.09905 0.23693,0.100505 0.47958,0.187359 0.72659,0.259728 0.88919,0.26035 1.77891,0.463751 2.69956,0.578275 1.29293,0.160884 2.66508,0.227333 3.9455,-0.05918 1.9104,-0.427517 3.6376,-1.604834 5.03571,-2.93504 0.67997,-0.646957 1.31271,-1.333474 1.88704,-2.078604 0.14152,-0.183622 0.5451,-0.574019 0.47782,-0.828607 -0.0359,-0.135808 -0.18715,-0.232784 -0.28834,-0.317613 -0.23403,-0.196288 -0.47963,-0.3796 -0.72675,-0.559067 -1.07084,-0.777627 -2.252,-1.46046 -3.47827,-1.960032 -3.31957,-1.352478 -8.1228,-2.125691 -10.69433,1.069595 -0.48307,0.600182 -0.873,1.257628 -1.16273,1.97275 -0.29488,0.727894 -0.54832,1.545442 -0.5505,2.336152 z"
         id="path426-3-0-7-3-0" />
    </g>
  </g>
</svg>
